PathFileType	4	(X/Y/Z)	OpenSim_Sub11_CSPreOp_Gyro.trc
DataRate	CameraRate	NumFrames	NumMarkers	Units	OrigDataRate	OrigDataStartFrame	OrigNumFrames
100	100	37	8	m	100	2776	3701
Frame#	Time	torso_imu_offset_imu	pelvis_imu_offset_imu	tibia_r_imu_offset_imu	femur_r_imu_offset_imu	tibia_l_imu_offset_imu	femur_l_imu_offset_imu	toes_r_imu_offset_imu	toes_l_imu_offset_imu
				X1	Y1	Z1	X2	Y2	Z2	X3	Y3	Z3	X4	Y4	Z4	X5	Y5	Z5	X6	Y6	Z6	X7	Y7	Z7	X8		Y8	Z8	

2776	27.75000000	-0.54684700	-0.30460200	-0.18058500	-0.71776900	0.26314200	0.04034800	0.28233900	0.00164300	-1.87640400	0.74642400	0.20923800	1.87368300	-0.21047400	-0.11029900	-0.09741600	-0.19358200	-0.29612000	0.65305600	0.00933400	-1.76906900	-0.59805300	0.04235300	-0.00282000	-0.08745800
2777	27.76000000	-0.52501200	-0.34578000	-0.19712000	-0.74170900	0.28203000	0.03693400	0.33583500	-0.09445200	-2.03142800	0.88200600	0.28853800	1.95733900	-0.28895600	-0.11531500	-0.03865700	-0.24333900	-0.32467800	0.60161600	0.29568400	-1.86534000	-0.71157900	0.06902400	-0.00506200	-0.08964300
2778	27.77000000	-0.49099300	-0.36737400	-0.20139800	-0.75050200	0.28465700	0.02376700	0.45411300	-0.08391100	-2.18320500	1.01562600	0.36649000	2.01134800	-0.32721600	-0.09879000	0.01480300	-0.29447700	-0.34004800	0.54253200	-0.06050800	-2.12730200	-0.83763300	0.04830500	0.02349400	-0.08118200
2779	27.78000000	-0.46357100	-0.38065500	-0.22036600	-0.75278600	0.29549500	0.00631200	0.53779900	-0.18598100	-2.25008400	1.04482400	0.40121500	1.98120600	-0.31857500	-0.07674200	0.04867500	-0.37879800	-0.33231100	0.50663600	0.00197100	-2.33820400	-0.95957200	-0.00549200	-0.01703800	-0.05933100
2780	27.79000000	-0.46088500	-0.39386300	-0.23491400	-0.75621600	0.29368100	-0.01597000	0.46020300	-0.38919000	-2.20287300	1.10568000	0.49831900	1.90878200	-0.37456700	-0.09224800	0.07792200	-0.44676900	-0.32591700	0.46477600	0.20291200	-2.53046000	-1.04824500	-0.01012900	0.01515600	-0.04850900
2781	27.80000000	-0.45994100	-0.40532500	-0.24874300	-0.74367200	0.29543800	-0.04179000	0.23380200	-0.54992500	-2.08369700	1.21687400	0.63600900	1.87264000	-0.46759900	-0.08178100	0.12040500	-0.52359900	-0.30298900	0.41097600	-0.01831700	-2.61975000	-1.09970800	-0.04684200	-0.01901400	-0.02815000
2782	27.81000000	-0.46666500	-0.40534300	-0.26978800	-0.72200200	0.30716700	-0.05619900	-0.17206800	-0.69183100	-1.97377300	1.28225800	0.76846800	1.81617200	-0.47641400	-0.08776000	0.16202000	-0.60224400	-0.31461500	0.36432200	0.09010100	-2.60482700	-1.12664100	-0.02282200	-0.01563000	-0.02883900
2783	27.82000000	-0.51032500	-0.40049600	-0.29625400	-0.71064600	0.29702100	-0.07524700	-0.43388700	-0.71940600	-1.90097800	1.30804800	0.88203800	1.78783100	-0.45794100	-0.08821800	0.20514200	-0.69497200	-0.32862000	0.33932600	-0.21372100	-2.51400600	-1.12436800	-0.04963700	-0.02572700	-0.01186900
2784	27.83000000	-0.57114200	-0.37936500	-0.29330100	-0.69500500	0.27543600	-0.08404300	-0.27489200	-0.59669800	-1.88402500	1.25549300	0.96098000	1.69633000	-0.43185900	-0.09069200	0.23472100	-0.76681000	-0.34908000	0.31707800	0.14812200	-2.19588800	-1.06884100	-0.02184900	-0.03057700	-0.01204700
2785	27.84000000	-0.57378200	-0.35353800	-0.29177500	-0.68344200	0.24379200	-0.08179000	-0.10974500	-0.50816300	-1.86293200	1.19905900	0.98601000	1.57414900	-0.39727600	-0.08229500	0.24322500	-0.83974400	-0.35197200	0.30442600	0.01537500	-1.58502600	-0.81005800	-0.01706600	-0.02588300	-0.00933700
2786	27.85000000	-0.55739700	-0.31934400	-0.29458800	-0.68199300	0.21396400	-0.06855500	-0.28899200	-0.62639700	-1.70395300	1.17694600	0.98248800	1.48043800	-0.35373500	-0.07641900	0.22819000	-0.86686100	-0.35358700	0.28076000	-0.46153200	-0.99765700	-0.66429600	-0.04909900	-0.06078600	-0.00161500
2787	27.86000000	-0.52065100	-0.29817900	-0.30041600	-0.68296700	0.19245200	-0.04546100	-0.74355900	-0.83444400	-1.26001000	1.04843100	0.93053800	1.37557300	-0.36045200	-0.08258700	0.22872300	-0.85056000	-0.37959900	0.25710700	-0.46395200	-0.59195500	-0.58389600	-0.03449600	-0.04340400	0.01375400
2788	27.87000000	-0.45549400	-0.28113000	-0.30245400	-0.68063000	0.17829600	-0.01583700	-1.14482600	-0.86306800	-0.61264000	0.79284800	0.82776700	1.17818300	-0.38925000	-0.07524700	0.25248900	-0.85166000	-0.37243700	0.26743900	-0.92078100	-0.06125500	-0.39072700	-0.03040100	-0.06333000	0.02475500
2789	27.88000000	-0.42563700	-0.27678600	-0.29448400	-0.68097100	0.17224600	0.02655500	-1.29651000	-0.66850300	-0.02286600	0.48599800	0.69487400	1.01520000	-0.37970200	-0.06755200	0.26832600	-0.84887800	-0.34637100	0.27908400	-0.87975700	0.31605200	-0.30659500	-0.01862700	-0.05295700	0.02960600
2790	27.89000000	-0.39192200	-0.27921700	-0.28294200	-0.68460100	0.17290100	0.05894400	-1.25093300	-0.46711100	0.36514600	0.13351700	0.58728700	0.89875300	-0.33693500	-0.05017500	0.27566900	-0.76543800	-0.33281800	0.27023400	-0.63432700	0.61123200	-0.24724400	-0.06401400	-0.09111200	0.05226600
2791	27.90000000	-0.36199400	-0.29647400	-0.27611900	-0.67717500	0.17027000	0.09482600	-1.15783700	-0.43290300	0.63345200	-0.24935100	0.49433700	0.78495300	-0.32781700	-0.04628000	0.26892100	-0.67408000	-0.35036500	0.23318000	-0.68148300	0.88871900	-0.17982600	-0.03648100	-0.07558800	0.04292100
2792	27.91000000	-0.34604700	-0.30572400	-0.24040300	-0.66738700	0.16249900	0.13213700	-1.05314000	-0.45045500	0.88025700	-0.66720700	0.41739300	0.67035500	-0.29834600	-0.04754600	0.28969800	-0.57845800	-0.35550200	0.20716100	-0.69543900	1.18304100	-0.11616400	-0.05340600	-0.09547000	0.05238700
2793	27.92000000	-0.33614900	-0.29968000	-0.21800300	-0.66491500	0.14652600	0.15451800	-0.85228700	-0.38662000	1.12023500	-1.06604300	0.33045100	0.55825100	-0.25385700	-0.02899700	0.32014900	-0.48798700	-0.35267400	0.19891800	-0.75978700	1.45496200	-0.06190500	-0.05037300	-0.09983600	0.05002400
2794	27.93000000	-0.33126800	-0.27411200	-0.19850800	-0.65874400	0.13791400	0.17501200	-0.60239100	-0.27934900	1.36541600	-1.40971300	0.24504000	0.49758400	-0.20681900	-0.01668600	0.33669600	-0.43757800	-0.33625300	0.19482100	-0.77692600	1.69708800	-0.00724200	-0.04220000	-0.09110600	0.04616900
2795	27.94000000	-0.35532800	-0.23990900	-0.19805700	-0.65104200	0.12911500	0.19399100	-0.41499400	-0.19705500	1.63524200	-1.70043000	0.13798200	0.44366700	-0.18164100	-0.00156700	0.33775500	-0.40632700	-0.31266400	0.18778200	-0.77712800	1.91218000	0.04658700	-0.02551800	-0.11260200	0.03796700
2796	27.95000000	-0.38040000	-0.21089700	-0.22338100	-0.64876000	0.11972600	0.20335700	-0.32185100	-0.15250300	1.93426700	-1.93718500	0.00767600	0.38345100	-0.16724100	0.00611000	0.32658300	-0.38253600	-0.29896200	0.19237600	-0.78570200	2.06713400	0.08580200	-0.00796700	-0.07894200	0.03967200
2797	27.96000000	-0.37728400	-0.18608200	-0.23057900	-0.64743300	0.11663200	0.21407200	-0.30554100	-0.11475300	2.23233500	-2.09794900	-0.12275700	0.30504000	-0.15940600	0.00788100	0.32901400	-0.34891700	-0.28717500	0.20534200	-0.78088700	2.15729100	0.12811000	-0.03600200	-0.11333400	0.04938600
2798	27.97000000	-0.39525700	-0.16611900	-0.22715000	-0.63935600	0.11775300	0.21728300	-0.34048800	-0.05645900	2.50297800	-2.14809700	-0.23791400	0.20790000	-0.16481800	0.01308900	0.32996700	-0.30591100	-0.27005200	0.20766400	-0.76600600	2.20936800	0.19452000	-0.04361500	-0.09269200	0.06465600
2799	27.98000000	-0.36657600	-0.15360900	-0.22023300	-0.63543300	0.12243700	0.22213300	-0.41217700	0.01382800	2.73705100	-2.07602700	-0.30543800	0.10835900	-0.18751600	0.01679600	0.36372900	-0.27231900	-0.23786200	0.19901700	-0.73430100	2.26771200	0.26158900	-0.02797500	-0.09987800	0.06516600
2800	27.99000000	-0.34315800	-0.15514900	-0.19356200	-0.62084000	0.11493200	0.22805700	-0.52564300	0.06934400	2.92113000	-1.92439600	-0.31134600	0.03841200	-0.18091600	0.01725300	0.37732600	-0.22043600	-0.19628300	0.19515200	-0.69287600	2.34000600	0.34386600	-0.01000700	-0.06561300	0.06255900
2801	28	-0.33282500	-0.15288700	-0.16056200	-0.61005000	0.10555200	0.22152400	-0.63323300	0.10353600	3.05974800	-1.70850200	-0.27849200	-0.01881200	-0.16186900	0.03816000	0.37229200	-0.16267900	-0.16115400	0.21039800	-0.69242800	2.38803300	0.39994100	-0.04148100	-0.11360100	0.07626100
2802	28.01000000	-0.32084600	-0.16129400	-0.14011400	-0.58205600	0.10084100	0.21583900	-0.68590100	0.12859900	3.16490900	-1.46595900	-0.21561800	-0.09372500	-0.16592400	0.03866600	0.35696100	-0.13930700	-0.14438500	0.21905700	-0.64863800	2.34408700	0.42488700	-0.02616400	-0.08965100	0.07713100
2803	28.02000000	-0.29612200	-0.16825800	-0.12826600	-0.54958300	0.09002600	0.21727900	-0.65215400	0.16083100	3.25823600	-1.22953600	-0.13510700	-0.18572300	-0.17041900	0.03414000	0.36849200	-0.14113100	-0.14232300	0.23423300	-0.54269400	2.22670800	0.41113000	-0.04296600	-0.10228200	0.08337200
2804	28.03000000	-0.25922900	-0.17630100	-0.10997800	-0.51155000	0.08248300	0.21172400	-0.56006700	0.19528700	3.35025500	-1.00409500	-0.05862200	-0.30808900	-0.14639100	0.04769500	0.38075800	-0.16748500	-0.14587400	0.25025900	-0.45676600	2.06345000	0.38857700	-0.02487800	-0.09744500	0.09061600
2805	28.04000000	-0.24219800	-0.17884300	-0.08874600	-0.46983000	0.06110500	0.20907400	-0.46446900	0.17082800	3.43654600	-0.79415400	-0.03194800	-0.44301900	-0.10950300	0.05406400	0.39941600	-0.20008100	-0.14702500	0.25488200	-0.34320400	1.91167700	0.36863700	-0.04299600	-0.08975900	0.10317700
2806	28.05000000	-0.22426500	-0.17161200	-0.07393400	-0.42520100	0.05064300	0.20102700	-0.42345700	0.14950900	3.48498300	-0.63419600	-0.05092000	-0.55509800	-0.08017700	0.05241800	0.41066000	-0.24571600	-0.14758700	0.25805100	-0.22824500	1.77411500	0.37898800	-0.02756200	-0.08803500	0.11057400
2807	28.06000000	-0.21385700	-0.15987500	-0.06642900	-0.36247200	0.04536800	0.20265400	-0.31732200	0.18778100	3.44431800	-0.54398900	-0.15601700	-0.64498900	-0.04324100	0.05871300	0.40840300	-0.27385800	-0.14691400	0.25207700	-0.40523200	1.75845500	0.45870000	-0.03622800	-0.05958200	0.11245200
2808	28.07000000	-0.24435900	-0.12162900	-0.03665200	-0.29850700	0.03415000	0.19464800	-0.11107400	0.15902700	3.34116600	-0.52376400	-0.30760700	-0.71438700	-0.00374900	0.06416200	0.40699000	-0.28942200	-0.15394800	0.24828800	-0.52441400	1.86987000	0.60356600	-0.02857400	-0.09050600	0.12005000
2809	28.08000000	-0.23496300	-0.08077600	-0.03572500	-0.23829400	0.01554100	0.18830000	0.04636800	0.08630000	3.20555700	-0.60811300	-0.46545000	-0.80937800	0.03778300	0.05572200	0.39675900	-0.28364500	-0.16535700	0.25475900	-0.50771100	1.93463200	0.73136000	-0.06477900	-0.06992800	0.13379300
2810	28.09000000	-0.19766300	-0.05270500	-0.02121700	-0.18867000	-0.00636600	0.18793200	0.20550000	0.05018100	3.05083300	-0.71286400	-0.57359900	-0.89000000	0.02665500	0.05263500	0.41958100	-0.25283400	-0.16419400	0.25961600	-0.44862900	1.86719900	0.82054200	-0.02717400	-0.06802500	0.12495400
2811	28.10000000	-0.14597100	-0.03626500	-0.01854300	-0.12435400	-0.02866600	0.18313200	0.42101000	0.08584200	2.88168500	-0.78494600	-0.61579000	-0.97741200	0.03838500	0.06035400	0.43144800	-0.18941000	-0.14719000	0.26118100	-0.37840800	1.66008300	0.90153200	-0.01511600	-0.02657200	0.12241600
2812	28.11000000	-0.12500000	-0.00408300	-0.01643100	-0.02857200	-0.05714000	0.17623800	0.60456600	0.12411500	2.71183800	-0.83371900	-0.59782500	-1.02949200	0.06233000	0.06998300	0.42782700	-0.12325800	-0.12907200	0.26451700	-0.32218000	1.38910800	1.01397300	-0.03192600	-0.09309900	0.13915200
